<?xml version="1.0" encoding="UTF-8"?>
<!DOCTYPE svg PUBLIC "-//W3C//DTD SVG 1.1//EN" "http://www.w3.org/Graphics/SVG/1.1/DTD/svg11.dtd">
<svg xmlns="http://www.w3.org/2000/svg" version="1.1" width="1441px" height="1441px" style="shape-rendering:geometricPrecision; text-rendering:geometricPrecision; image-rendering:optimizeQuality; fill-rule:evenodd; clip-rule:evenodd" xmlns:xlink="http://www.w3.org/1999/xlink">
<g><path style="opacity:1" fill="#689e1d" d="M 689.5,-0.5 C 699.833,-0.5 710.167,-0.5 720.5,-0.5C 720.5,24.8333 720.5,50.1667 720.5,75.5C 551.889,77.8412 405.555,135.341 281.5,248C 149.222,374.611 80.8885,529.944 76.5,714C 77.2911,887.8 136.458,1037.97 254,1164.5C 381.682,1294.73 537.182,1361.06 720.5,1363.5C 720.5,1388.83 720.5,1414.17 720.5,1439.5C 713.167,1439.5 705.833,1439.5 698.5,1439.5C 523.294,1432.84 370.294,1372.01 239.5,1257C 106.992,1135.84 28.8252,985.673 5,806.5C 2.2505,781.408 0.417162,756.408 -0.5,731.5C -0.5,723.833 -0.5,716.167 -0.5,708.5C 6.61681,497.8 87.6168,321.634 242.5,180C 370.481,69.0496 519.481,8.8829 689.5,-0.5 Z"/></g>
<g><path style="opacity:0.998" fill="#4d6deb" d="M 720.5,-0.5 C 730.833,-0.5 741.167,-0.5 751.5,-0.5C 953.144,11.416 1121.98,91.416 1258,239.5C 1369.19,366.282 1430.02,514.282 1440.5,683.5C 1440.5,707.833 1440.5,732.167 1440.5,756.5C 1425.17,973.683 1333.5,1150.52 1165.5,1287C 1041.13,1382.97 900.129,1434.13 742.5,1440.5C 727.833,1440.5 713.167,1440.5 698.5,1440.5C 698.5,1440.17 698.5,1439.83 698.5,1439.5C 705.833,1439.5 713.167,1439.5 720.5,1439.5C 720.5,1414.17 720.5,1388.83 720.5,1363.5C 923.968,1359.67 1090.8,1280.34 1221,1125.5C 1330.71,985.897 1377.38,827.23 1361,649.5C 1338.22,471.61 1257.72,326.444 1119.5,214C 1002.38,123.456 869.384,77.2889 720.5,75.5C 720.5,50.1667 720.5,24.8333 720.5,-0.5 Z"/></g>
<g><path style="opacity:1" fill="#fefefe" d="M 720.5,75.5 C 869.384,77.2889 1002.38,123.456 1119.5,214C 1257.72,326.444 1338.22,471.61 1361,649.5C 1377.38,827.23 1330.71,985.897 1221,1125.5C 1090.8,1280.34 923.968,1359.67 720.5,1363.5C 537.182,1361.06 381.682,1294.73 254,1164.5C 136.458,1037.97 77.2911,887.8 76.5,714C 80.8885,529.944 149.222,374.611 281.5,248C 405.555,135.341 551.889,77.8412 720.5,75.5 Z"/></g>
<g><path style="opacity:1" fill="#ebd62f" d="M 720.5,162.5 C 720.5,211.5 720.5,260.5 720.5,309.5C 694.5,309.5 668.5,309.5 642.5,309.5C 642.62,315.693 644.453,321.36 648,326.5C 656.696,335.531 665.696,344.197 675,352.5C 676,354.5 677,356.5 678,358.5C 674.515,569.83 670.849,781.164 667,992.5C 630.958,955.959 595.125,919.292 559.5,882.5C 523.18,918.987 487.013,955.654 451,992.5C 415,955.833 379,919.167 343,882.5C 306.987,919.346 270.82,956.013 234.5,992.5C 178.729,891.979 155.563,784.312 165,669.5C 182.924,508.106 255.09,377.272 381.5,277C 481.52,201.492 594.52,163.325 720.5,162.5 Z"/></g>
<g><path style="opacity:1" fill="#ae201f" d="M 720.5,162.5 C 909.969,167.143 1061.14,244.81 1174,395.5C 1267.16,530.295 1297.49,678.295 1265,839.5C 1253.19,893.611 1233.52,944.611 1206,992.5C 1169.99,955.654 1133.82,918.987 1097.5,882.5C 1061.88,919.292 1026.04,955.959 990,992.5C 953.987,955.654 917.82,918.987 881.5,882.5C 845.15,918.683 809.317,955.35 774,992.5C 769.931,780.835 766.264,569.169 763,357.5C 764,355.833 765,354.167 766,352.5C 774.475,343.936 783.141,335.603 792,327.5C 795.849,322.12 798.016,316.12 798.5,309.5C 772.5,309.5 746.5,309.5 720.5,309.5C 720.5,260.5 720.5,211.5 720.5,162.5 Z"/></g>
</svg>
